<!-- <svg xmlns="http://www.w3.org/2000/svg" width="26" height="26" viewBox="0 0 24 24">
	<rect width="24" height="24" fill="none" />
	<path fill="none" stroke="white" stroke-linecap="round" stroke-linejoin="round" stroke-width="1.5" d="m17 17l4 4M3 11a8 8 0 1 0 16 0a8 8 0 0 0-16 0" />
</svg> -->
<!-- <svg xmlns="http://www.w3.org/2000/svg" width="28" height="28" viewBox="0 0 24 24">
	<rect width="24" height="24" fill="none" />
	<path fill="none" stroke="white" stroke-linecap="round" stroke-linejoin="round" stroke-width="2" d="M14 4h6v6h-6zM4 14h6v6H4zm10 3a3 3 0 1 0 6 0a3 3 0 1 0-6 0M4 7a3 3 0 1 0 6 0a3 3 0 1 0-6 0" />
</svg> -->
<svg width="1000px" height="1000px" viewBox="0 0 24 24" fill="none" xmlns="http://www.w3.org/2000/svg">
  <g clip-path="url(#clip0_429_11052)">
    <circle cx="17" cy="7" r="3" stroke="#fff" stroke-width="1.5" stroke-linecap="round" stroke-linejoin="round"/>
    <circle cx="7" cy="17" r="3" stroke="#fff" stroke-width="1.5" stroke-linecap="round" stroke-linejoin="round"/>
    <path d="M14 14H20V19C20 19.5523 19.5523 20 19 20H15C14.4477 20 14 19.5523 14 19V14Z" stroke="#fff" stroke-width="1.5" stroke-linecap="round" stroke-linejoin="round"/>
    <path d="M4 4H10V9C10 9.55228 9.55228 10 9 10H5C4.44772 10 4 9.55228 4 9V4Z" stroke="#fff" stroke-width="1.5" stroke-linecap="round" stroke-linejoin="round"/>
  </g>
  <defs>
    <clipPath id="clip0_429_11052">
      <rect width="28" height="28" fill="white"/>
    </clipPath>
  </defs>
</svg>
